<?xml version="1.0" encoding="UTF-8"?> <svg xmlns="http://www.w3.org/2000/svg" width="497" height="537" viewBox="0 0 497 537" fill="none"><path d="M25.5731 143.686C29.0856 98.4196 62.6522 61.2005 107.316 53.0476L293.663 19.0324C350.241 8.70484 403.848 48.1133 410.872 105.195L447.672 404.295C455.827 470.573 397.971 526.07 332.089 515.164L91.4626 475.331C40.2834 466.858 4.08054 420.657 8.09395 368.937L25.5731 143.686Z" fill="url(#paint0_linear_3190_841)"></path><g clip-path="url(#clip0_3190_841)"><path d="M128.35 335.72C127.623 336.931 126.477 337.832 125.13 338.253C123.783 338.673 122.328 338.584 121.043 338.001C119.757 337.419 118.73 336.384 118.156 335.093C117.582 333.802 117.501 332.345 117.929 330.998L95.6758 285.209L106.328 278.739L125.546 327.377C125.619 327.405 125.692 327.435 125.763 327.467C125.834 327.498 125.905 327.531 125.976 327.565L126.189 327.672C126.26 327.707 126.33 327.747 126.397 327.79C127.705 328.582 128.647 329.861 129.014 331.347C129.381 332.834 129.144 334.405 128.354 335.716L128.35 335.72Z" fill="#FEB8B8"></path><path d="M99.9216 302.864L115.73 298.806C115.73 298.806 115.213 297.637 114.375 295.701C113.536 293.765 112.364 291.063 111.045 288C109.727 284.937 108.264 281.51 106.835 278.124C105.406 274.739 104.014 271.394 102.846 268.495C101.679 265.596 100.345 263.857 99.0104 262.886C97.9044 262.044 96.5114 261.674 95.134 261.854C94.0635 262.014 93.0403 262.404 92.1347 262.998C91.706 263.265 91.3029 263.571 90.9308 263.913L87.2656 270.589L99.9216 302.864Z" fill="#CCCCCC"></path><path d="M84.2148 426.193L93.8891 426.155L90.7696 451.474L84.2148 451.507V426.193Z" fill="#FEB8B8"></path><path d="M82.5412 457.878L103.665 457.766V457.499C103.665 456.956 103.611 456.414 103.505 455.882C103.297 454.831 102.884 453.832 102.287 452.943C101.682 452.042 100.906 451.268 100.003 450.666C99.1121 450.073 98.1125 449.662 97.0622 449.459C96.5297 449.356 95.9885 449.306 95.4463 449.31L82.5391 449.373L82.5412 457.878Z" fill="#2F2E41"></path><path d="M115.191 426.074L124.838 426.036L121.729 451.32L115.192 451.353L115.191 426.074Z" fill="#FEB8B8"></path><path d="M113.524 457.713L134.593 457.603V457.336C134.592 456.794 134.539 456.253 134.433 455.721C134.226 454.672 133.813 453.674 133.219 452.786C132.615 451.886 131.84 451.113 130.939 450.511C130.051 449.919 129.054 449.51 128.007 449.307C127.476 449.205 126.936 449.155 126.395 449.158L113.523 449.221L113.524 457.713Z" fill="#2F2E41"></path><path d="M115.601 322.59L131.822 383.223L125.884 441.344L112.738 441.707L115.6 389.227L99.1987 363.036L95.6416 442.063L83.7142 441.22L77.0818 373.272C74.8285 367.966 73.176 362.424 72.1552 356.75C71.3529 352.296 70.9627 347.777 70.9896 343.252C71.0031 340.205 71.2368 337.163 71.689 334.15C71.8505 333.027 72.0692 331.913 72.3442 330.813L77.1808 325.902L115.601 322.59Z" fill="#2F2E41"></path><path d="M94.1067 332.73C96.8345 332.73 99.3947 332.643 101.718 332.47C104.089 332.307 106.448 331.996 108.78 331.539C110.766 331.167 112.699 330.558 114.539 329.723C116.021 329.082 117.309 328.064 118.275 326.77L118.386 326.61L113.952 297.709L109.171 265.213C108.857 263.062 107.764 261.102 106.1 259.706C104.437 258.31 102.319 257.576 100.149 257.643L85.1749 258.102C82.9501 258.171 80.8435 259.121 79.3185 260.745C77.7935 262.369 76.9751 264.533 77.0433 266.762C77.0458 266.846 77.0497 266.931 77.0548 267.015L79.0205 299.333L71.7695 331.212L72.2832 331.284C72.4897 331.311 73.2854 331.416 74.5319 331.557C76.1612 331.74 77.825 331.905 79.4766 332.048C81.8132 332.25 84.1003 332.408 86.273 332.52C89.0263 332.66 91.6674 332.728 94.1067 332.73Z" fill="#CCCCCC"></path><path d="M102.417 251.902H102.429C103.063 251.901 103.671 251.647 104.12 251.198C104.568 250.748 104.82 250.138 104.82 249.503V236.132C104.822 233.737 104.343 231.365 103.412 229.158C101.589 224.852 98.1756 221.416 93.8849 219.568C91.1717 218.402 88.2122 217.929 85.2715 218.19C82.3308 218.451 79.5006 219.439 77.0345 221.064C74.5683 222.69 72.5431 224.902 71.1402 227.504C69.7374 230.106 69.0007 233.015 68.9961 235.972V249.364C68.9957 249.686 69.0601 250.006 69.1856 250.302C69.4314 250.881 69.8909 251.343 70.4683 251.59C70.7647 251.717 71.0834 251.783 71.4056 251.784L102.417 251.902Z" fill="#2F2E41"></path><path d="M78.8201 231.546C77.5709 233.832 77.0258 236.436 77.2537 239.031C77.4817 241.627 78.4723 244.096 80.1006 246.128C81.7289 248.159 83.9217 249.662 86.4022 250.446C88.8827 251.23 91.5396 251.261 94.0373 250.533C95.6915 250.057 97.2349 249.257 98.5782 248.18C99.9214 247.102 101.038 245.768 101.863 244.255C103.109 241.971 103.652 239.368 103.423 236.775C103.195 234.183 102.205 231.716 100.578 229.686C98.9517 227.655 96.7616 226.153 94.2839 225.368C91.8061 224.583 89.1517 224.55 86.6554 225.274C85 225.748 83.455 226.547 82.1102 227.623C80.7654 228.7 79.6474 230.034 78.8211 231.547L78.8201 231.546Z" fill="#FEB8B8"></path><path d="M109.054 237.221C109.056 235.327 108.677 233.451 107.941 231.706C106.499 228.301 103.8 225.584 100.408 224.123C98.6675 223.376 96.7948 222.987 94.9013 222.98L92.2294 222.967H92.1394C88.4026 222.969 84.8199 224.458 82.1792 227.106C79.5386 229.754 78.0563 233.345 78.0586 237.087V237.354L83.7112 237.377L85.6385 231.984L86.0238 237.388L88.9432 237.4L89.9151 234.682L90.1099 237.406L109.051 237.491L109.054 237.221Z" fill="#2F2E41"></path><path d="M131.813 265.35C132.683 265.564 133.497 265.964 134.198 266.523C134.745 266.957 135.214 267.483 135.582 268.078C136.308 269.255 136.628 270.638 136.492 272.015C136.424 272.71 136.235 273.389 135.936 274.02C135.566 274.806 135.034 275.505 134.374 276.07C133.715 276.636 132.944 277.054 132.111 277.299C131.278 277.544 130.403 277.609 129.543 277.49C128.683 277.371 127.859 277.07 127.124 276.608C127.069 276.573 127.016 276.537 126.964 276.502C126.912 276.466 126.86 276.429 126.807 276.391C126.756 276.354 126.705 276.315 126.655 276.277C126.605 276.238 126.556 276.199 126.507 276.158L95.3164 287.277C94.3567 287.619 93.312 287.639 92.3397 287.335C91.3674 287.031 90.52 286.419 89.9252 285.59L82.5273 275.335L91.4692 269.305L96.1595 274.642L124.705 268.955C124.737 268.88 124.769 268.807 124.802 268.733C124.836 268.66 124.871 268.587 124.909 268.514C124.944 268.443 124.982 268.371 125.023 268.298C125.063 268.225 125.104 268.154 125.147 268.085C125.828 266.983 126.84 266.125 128.037 265.634C129.235 265.143 130.557 265.044 131.814 265.351L131.813 265.35Z" fill="#FEB8B8"></path><path d="M95.6534 271.275C94.7203 270.109 93.4179 268.595 92.0904 267.093C90.763 265.59 89.4201 264.102 88.4051 262.988C87.3901 261.874 86.7077 261.136 86.7077 261.136C85.7711 259.718 84.3732 258.668 82.7514 258.165C81.1297 257.662 79.3841 257.737 77.8111 258.377C76.2381 259.017 74.9348 260.182 74.1225 261.676C73.3102 263.169 73.039 264.897 73.355 266.568C73.5355 267.53 73.9085 268.445 74.4515 269.259C74.4515 269.259 75.4691 270.592 77.0063 272.584C78.5434 274.575 80.5974 277.225 82.6706 279.859C84.7437 282.494 86.8371 285.115 88.4509 287.05C90.0647 288.984 91.201 290.234 91.3607 290.127L96.9904 273.366C97.1495 273.258 96.5864 272.442 95.6534 271.275Z" fill="#CCCCCC"></path><path d="M92.3112 251.48C92.3998 251.912 92.3655 252.36 92.2122 252.774C92.1353 252.986 92.029 253.186 91.8966 253.368C91.7834 253.523 91.6523 253.665 91.5059 253.789C91.0721 254.156 90.5219 254.357 89.9539 254.354C89.9184 254.354 89.8829 254.353 89.8474 254.351C89.8119 254.349 89.7765 254.346 89.741 254.344C89.7055 254.341 89.67 254.337 89.6345 254.332C89.599 254.327 89.5636 254.321 89.5281 254.315L87.522 253.95L84.7585 248.037V253.453L75.6367 251.808V228.823L90.9284 228.897L90.5505 229.337C89.2957 230.812 88.4717 232.606 88.1692 234.52C87.8726 236.459 87.9098 238.435 88.2794 240.362C88.6386 242.311 89.1839 244.221 89.9076 246.066C90.5402 247.7 91.2663 249.297 92.0824 250.848C92.1878 251.047 92.2649 251.259 92.3112 251.48Z" fill="#2F2E41"></path><path d="M429.419 459H36V457.878H430L429.419 459Z" fill="#CACACA"></path><path d="M325.141 169.036H323.065V112.007C323.065 103.253 319.593 94.8573 313.413 88.6674C307.233 82.4775 298.851 79 290.111 79H169.475C165.147 78.9999 160.862 79.8536 156.863 81.5123C152.865 83.1709 149.232 85.6021 146.172 88.667C143.112 91.7319 140.684 95.3705 139.028 99.375C137.372 103.38 136.52 107.672 136.52 112.006V424.871C136.52 429.206 137.372 433.498 139.028 437.502C140.684 441.507 143.112 445.145 146.172 448.21C149.232 451.275 152.865 453.707 156.863 455.365C160.861 457.024 165.147 457.878 169.474 457.878H290.109C298.849 457.878 307.231 454.4 313.411 448.21C319.592 442.02 323.064 433.625 323.064 424.871V209.63H325.139L325.141 169.036Z" fill="#3F3D56"></path><path d="M316.344 109.796V427.081C316.343 433.718 313.71 440.083 309.025 444.777C304.34 449.471 297.985 452.109 291.359 452.111H168.248C161.619 452.112 155.26 449.476 150.572 444.782C145.883 440.088 143.248 433.721 143.246 427.081V109.796C143.248 103.157 145.883 96.7897 150.571 92.096C155.26 87.4022 161.618 84.7658 168.247 84.7666H183.181C182.447 86.5727 182.168 88.5316 182.368 90.4711C182.568 92.4105 183.24 94.2712 184.326 95.8895C185.411 97.5078 186.877 98.8342 188.595 99.7522C190.312 100.67 192.228 101.151 194.175 101.154H264.363C266.309 101.151 268.226 100.67 269.943 99.7522C271.66 98.8342 273.126 97.5078 274.212 95.8895C275.298 94.2712 275.97 92.4105 276.17 90.4711C276.369 88.5316 276.09 86.5727 275.357 84.7666H291.354C297.98 84.7677 304.335 87.4045 309.021 92.0971C313.708 96.7897 316.341 103.154 316.344 109.791V109.796Z" fill="white"></path><path d="M231.115 236.729C217.098 236.734 203.654 231.163 193.738 221.24C183.823 211.317 178.249 197.856 178.242 183.817V183.77C178.242 183.66 178.242 183.543 178.249 183.432C178.408 154.432 202.127 130.815 231.115 130.815C245.138 130.815 258.586 136.393 268.502 146.324C278.419 156.254 283.99 169.724 283.991 183.769C283.991 197.813 278.422 211.283 268.507 221.215C258.592 231.147 245.144 236.727 231.121 236.728H231.115V236.729ZM231.115 131.93C217.45 131.96 204.349 137.391 194.658 147.041C184.968 156.691 179.471 169.781 179.362 183.468C179.356 183.586 179.356 183.681 179.356 183.771C179.355 194.026 182.39 204.05 188.077 212.577C193.764 221.104 201.848 227.751 211.306 231.676C220.765 235.601 231.173 236.63 241.215 234.63C251.257 232.631 260.482 227.694 267.722 220.444C274.963 213.194 279.894 203.956 281.893 193.899C283.891 183.841 282.867 173.416 278.951 163.942C275.034 154.468 268.4 146.369 259.887 140.671C251.375 134.973 241.367 131.931 231.129 131.93H231.115Z" fill="#CCCCCC"></path><path d="M285.787 292.407H176.389C175.852 292.407 175.337 292.193 174.957 291.812C174.577 291.432 174.364 290.916 174.363 290.378V263.199C174.364 262.661 174.578 262.145 174.957 261.765C175.337 261.385 175.852 261.171 176.389 261.17H285.787C286.324 261.171 286.839 261.385 287.219 261.765C287.599 262.145 287.812 262.661 287.813 263.199V290.379C287.812 290.917 287.599 291.432 287.219 291.813C286.839 292.193 286.324 292.407 285.787 292.408V292.407ZM176.389 261.981C176.067 261.982 175.758 262.11 175.53 262.338C175.302 262.566 175.174 262.876 175.173 263.199V290.379C175.174 290.702 175.302 291.011 175.53 291.239C175.758 291.468 176.067 291.596 176.389 291.596H285.787C286.11 291.596 286.419 291.468 286.647 291.239C286.875 291.011 287.003 290.702 287.003 290.379V263.199C287.003 262.876 286.875 262.566 286.647 262.338C286.419 262.11 286.11 261.982 285.787 261.981H176.389Z" fill="#E6E6E6"></path><path d="M190.571 285.31C195.27 285.31 199.08 281.494 199.08 276.788C199.08 272.081 195.27 268.266 190.571 268.266C185.872 268.266 182.062 272.081 182.062 276.788C182.062 281.494 185.872 285.31 190.571 285.31Z" fill="#CCCCCC"></path><path d="M210.223 271.106C209.847 271.106 209.486 271.256 209.22 271.522C208.954 271.789 208.805 272.15 208.805 272.527C208.805 272.904 208.954 273.265 209.22 273.531C209.486 273.798 209.847 273.947 210.223 273.947H277.077C277.453 273.962 277.819 273.826 278.095 273.57C278.371 273.314 278.534 272.959 278.549 272.582C278.563 272.206 278.428 271.839 278.172 271.562C277.916 271.286 277.561 271.122 277.186 271.108C277.165 271.107 277.144 271.107 277.123 271.107H210.223V271.106Z" fill="#E6E6E6"></path><path d="M210.223 279.628C209.847 279.628 209.486 279.778 209.22 280.044C208.954 280.31 208.805 280.672 208.805 281.048C208.805 281.425 208.954 281.786 209.22 282.053C209.486 282.319 209.847 282.469 210.223 282.469H277.077C277.453 282.483 277.819 282.347 278.095 282.091C278.371 281.835 278.534 281.48 278.549 281.104C278.563 280.727 278.428 280.36 278.172 280.084C277.916 279.807 277.561 279.644 277.186 279.629C277.165 279.629 277.144 279.628 277.123 279.628L210.223 279.628Z" fill="#E6E6E6"></path><path d="M285.787 337.858H176.389C175.852 337.858 175.337 337.644 174.957 337.263C174.577 336.883 174.364 336.367 174.363 335.829V308.65C174.364 308.112 174.578 307.596 174.957 307.216C175.337 306.836 175.852 306.622 176.389 306.621H285.787C286.324 306.622 286.839 306.836 287.219 307.216C287.599 307.596 287.812 308.112 287.813 308.65V335.83C287.812 336.368 287.599 336.883 287.219 337.264C286.839 337.644 286.324 337.858 285.787 337.858ZM176.389 307.432C176.067 307.433 175.758 307.561 175.53 307.789C175.302 308.018 175.174 308.327 175.173 308.65V335.83C175.174 336.153 175.302 336.462 175.53 336.691C175.758 336.919 176.067 337.047 176.389 337.048H285.787C286.11 337.047 286.419 336.919 286.647 336.691C286.875 336.462 287.003 336.153 287.003 335.83V308.65C287.003 308.327 286.875 308.018 286.647 307.789C286.419 307.561 286.11 307.433 285.787 307.432H176.389Z" fill="#E6E6E6"></path><path d="M190.571 330.762C195.27 330.762 199.08 326.946 199.08 322.24C199.08 317.533 195.27 313.718 190.571 313.718C185.872 313.718 182.062 317.533 182.062 322.24C182.062 326.946 185.872 330.762 190.571 330.762Z" fill="#CCCCCC"></path><path d="M210.223 316.557C209.847 316.557 209.486 316.706 209.22 316.973C208.954 317.239 208.805 317.6 208.805 317.977C208.805 318.354 208.954 318.715 209.22 318.981C209.486 319.248 209.847 319.397 210.223 319.397H277.077C277.448 319.395 277.803 319.248 278.067 318.987C278.33 318.726 278.481 318.371 278.487 318C278.493 317.629 278.354 317.27 278.099 317C277.844 316.73 277.494 316.571 277.123 316.557L210.223 316.557Z" fill="#E6E6E6"></path><path d="M210.223 325.08C209.847 325.08 209.486 325.23 209.22 325.496C208.954 325.762 208.805 326.124 208.805 326.501C208.805 326.877 208.954 327.239 209.22 327.505C209.486 327.771 209.847 327.921 210.223 327.921H277.077C277.448 327.919 277.803 327.771 278.067 327.51C278.33 327.249 278.481 326.895 278.487 326.523C278.493 326.152 278.354 325.793 278.099 325.524C277.844 325.254 277.494 325.095 277.123 325.081L210.223 325.08Z" fill="#E6E6E6"></path><path d="M285.787 383.309H176.389C175.852 383.308 175.337 383.094 174.957 382.714C174.577 382.333 174.364 381.818 174.363 381.28V354.1C174.364 353.562 174.578 353.047 174.957 352.666C175.337 352.286 175.852 352.072 176.389 352.071H285.787C286.324 352.072 286.839 352.286 287.219 352.666C287.599 353.047 287.812 353.562 287.813 354.1V381.28C287.812 381.818 287.599 382.334 287.219 382.714C286.839 383.094 286.324 383.308 285.787 383.309V383.309ZM176.389 352.883C176.067 352.883 175.758 353.011 175.53 353.24C175.302 353.468 175.174 353.777 175.173 354.1V381.28C175.174 381.603 175.302 381.912 175.53 382.141C175.758 382.369 176.067 382.497 176.389 382.498H285.787C286.11 382.497 286.419 382.369 286.647 382.141C286.875 381.912 287.003 381.603 287.003 381.28V354.1C287.003 353.777 286.875 353.468 286.647 353.24C286.419 353.011 286.11 352.883 285.787 352.883H176.389Z" fill="#E6E6E6"></path><path d="M190.571 376.213C195.27 376.213 199.08 372.398 199.08 367.691C199.08 362.984 195.27 359.169 190.571 359.169C185.872 359.169 182.062 362.984 182.062 367.691C182.062 372.398 185.872 376.213 190.571 376.213Z" fill="#CCCCCC"></path><path d="M210.223 362.009C209.847 362.009 209.486 362.158 209.22 362.425C208.954 362.691 208.805 363.052 208.805 363.429C208.805 363.806 208.954 364.167 209.22 364.434C209.486 364.7 209.847 364.85 210.223 364.85H277.077C277.453 364.864 277.819 364.728 278.095 364.472C278.371 364.216 278.534 363.861 278.549 363.484C278.563 363.108 278.428 362.741 278.172 362.465C277.916 362.188 277.561 362.025 277.186 362.01C277.165 362.01 277.144 362.009 277.123 362.009L210.223 362.009Z" fill="#E6E6E6"></path><path d="M210.223 370.531C209.847 370.531 209.486 370.681 209.22 370.947C208.954 371.214 208.805 371.575 208.805 371.952C208.805 372.328 208.954 372.69 209.22 372.956C209.486 373.222 209.847 373.372 210.223 373.372H277.077C277.263 373.379 277.449 373.35 277.623 373.285C277.798 373.22 277.958 373.122 278.095 372.995C278.232 372.868 278.342 372.716 278.42 372.546C278.498 372.377 278.542 372.193 278.549 372.007C278.556 371.82 278.526 371.634 278.462 371.459C278.397 371.284 278.298 371.124 278.172 370.987C278.045 370.85 277.893 370.74 277.724 370.662C277.555 370.584 277.372 370.54 277.186 370.533C277.165 370.532 277.144 370.532 277.123 370.532L210.223 370.531Z" fill="#E6E6E6"></path><path d="M165.535 309.55H185.704C186.966 300.228 184.182 291.524 185.704 285.31H165.535C161.738 293.391 161.738 301.471 165.535 309.55Z" fill="#FF6584"></path><path d="M296.474 356.328H276.305C277.061 347.007 279.498 338.303 276.305 332.087H296.473C300.271 340.167 300.271 348.247 296.474 356.328Z" fill="#2B42C9"></path><path d="M259.169 403.295H239C239.756 393.974 242.194 385.27 239 379.054H259.169C262.966 387.134 262.966 395.214 259.169 403.295Z" fill="#2B42C9"></path><path d="M258.137 229.448C249.846 234.486 240.273 237.006 230.581 236.705C220.888 236.403 211.49 233.292 203.527 227.748C205.197 224.23 207.829 221.257 211.116 219.175C214.404 217.093 218.213 215.986 222.103 215.983H238.847C243.051 215.983 247.155 217.274 250.604 219.682C254.054 222.09 256.683 225.499 258.138 229.45L258.137 229.448Z" fill="#2B42C9"></path><path d="M208.278 180.832C210.81 172.748 216.569 165.335 224.533 162.6C232.498 159.865 246.392 162.421 250.148 170.007C255.561 180.939 253.129 194.327 250.259 206.196C248.762 206.116 247.252 206.054 245.735 205.998L243.592 198.844V205.927C231.768 205.561 219.458 205.79 207.141 206.027C206.04 197.626 205.745 188.915 208.278 180.832Z" fill="#2F2E41"></path><path d="M225.628 206.852C235.643 206.852 243.761 198.721 243.761 188.691C243.761 178.661 235.643 170.53 225.628 170.53C215.614 170.53 207.496 178.661 207.496 188.691C207.496 198.721 215.614 206.852 225.628 206.852Z" fill="#FEB8B8"></path><path d="M213.802 166.81C217.084 164.806 220.843 163.722 224.687 163.671C228.53 163.62 232.317 164.604 235.65 166.521C238.984 168.438 241.742 171.216 243.637 174.566C245.531 177.916 246.493 181.714 246.42 185.564C236.872 186.003 226.842 186.118 216.672 186.138L214.267 180.245L212.85 186.141C209.751 186.141 206.646 186.137 203.535 186.129C203.409 182.291 204.29 178.486 206.092 175.096C207.893 171.706 210.552 168.848 213.802 166.81Z" fill="#2F2E41"></path><path d="M394.891 441.853C394.749 447.175 393.859 452.452 392.247 457.526C392.21 457.643 392.172 457.76 392.133 457.877H382.264C382.274 457.77 382.285 457.654 382.295 457.526C382.953 449.949 386.747 403.834 382.211 395.948C382.608 396.588 395.655 417.777 394.891 441.853Z" fill="#F0F0F0"></path><path d="M393.307 457.142C393.135 457.389 392.955 457.635 392.771 457.878H377.289C377.407 457.668 377.542 457.422 377.7 457.142C380.258 452.518 387.828 438.697 394.856 424.364C402.408 408.963 409.337 392.979 408.753 387.193C408.933 388.498 414.157 428.275 393.307 457.142Z" fill="#F0F0F0"></path></g><defs><linearGradient id="paint0_linear_3190_841" x1="232.5" y1="0" x2="232.5" y2="537" gradientUnits="userSpaceOnUse"><stop stop-color="#F2F5FA"></stop><stop offset="1" stop-color="#F8F9F9" stop-opacity="0.5"></stop></linearGradient><clipPath id="clip0_3190_841"><rect width="394" height="380" fill="white" transform="translate(36 79)"></rect></clipPath></defs></svg> 